<?xml version="1.0" encoding="UTF-8"?>
<!-- Generated by Pixelmator Pro 3.7.1 -->
<svg width="1024" height="1024" viewBox="0 0 1024 1024" xmlns="http://www.w3.org/2000/svg">
    <path id="Rounded-Rectangle-copy" fill="#ffffff" fill-rule="evenodd" stroke="none" d="M 10.760777 822.289917 C 0 803.075195 0 777.448547 0 726.195313 L 0 298.494141 C 0 247.240906 0 221.614258 10.760777 202.399536 C 18.365891 188.819641 29.578211 177.6073 43.158119 170.002197 C 62.372868 159.241394 87.999496 159.241394 139.252747 159.241394 L 884.747253 159.241394 C 936.000488 159.241394 961.627136 159.241394 980.841858 170.002197 C 994.421753 177.6073 1005.634094 188.819641 1013.239197 202.399536 C 1024 221.614258 1024 247.240906 1024 298.494141 L 1024 726.195313 C 1024 777.448547 1024 803.075195 1013.239197 822.289917 C 1005.634094 835.869873 994.421753 847.082153 980.841858 854.687256 C 961.627136 865.448059 936.000488 865.448059 884.747253 865.448059 L 139.252747 865.448059 C 87.999496 865.448059 62.372868 865.448059 43.158119 854.687256 C 29.578211 847.082153 18.365891 835.869873 10.760777 822.289917 Z M 84.395607 832.099426 C 56.429363 832.099426 33.758244 809.428284 33.758244 781.462036 L 33.758244 244.762268 C 33.758244 216.796021 56.429363 194.124939 84.395607 194.124939 L 938.479126 194.124939 C 966.445374 194.124939 989.116455 216.796021 989.116455 244.762268 L 989.116455 781.462036 C 989.116455 809.428284 966.445374 832.099426 938.479126 832.099426 L 84.395607 832.099426 Z"/>
</svg>
