<?xml version="1.0" encoding="UTF-8"?>
<!-- Generated by Pixelmator Pro 3.7.1 -->
<svg width="74" height="90" viewBox="0 0 74 90" xmlns="http://www.w3.org/2000/svg">
    <g id="Regular-S">
        <path id="Path" fill="#000000" stroke="#000000" stroke-width="0.5" d="M 34.619751 20.328125 C 35.15686 20.328125 35.449829 19.986328 35.547485 19.546875 C 36.768188 13.248047 36.670532 13.150391 43.213501 11.880859 C 43.701782 11.783203 44.043579 11.490234 44.043579 10.953125 C 44.043579 10.416016 43.701782 10.123047 43.213501 10.025391 C 36.670532 8.755859 36.768188 8.658203 35.547485 2.359375 C 35.449829 1.871094 35.15686 1.529297 34.619751 1.529297 C 34.13147 1.529297 33.838501 1.871094 33.740845 2.359375 C 32.471313 8.658203 32.617798 8.755859 26.074829 10.025391 C 25.586548 10.123047 25.244751 10.416016 25.244751 10.953125 C 25.244751 11.490234 25.586548 11.783203 26.074829 11.880859 C 32.617798 13.150391 32.471313 13.248047 33.740845 19.546875 C 33.838501 19.986328 34.13147 20.328125 34.619751 20.328125 Z"/>
        <path id="path1" fill="#000000" stroke="#000000" stroke-width="0.5" d="M 16.309204 46.841797 C 17.090454 46.841797 17.627563 46.304688 17.72522 45.523438 C 19.043579 35.318359 19.483032 35.269531 30.078857 33.21875 C 30.811157 33.121094 31.397095 32.583984 31.397095 31.802734 C 31.397095 30.972656 30.811157 30.435547 30.078857 30.337891 C 19.483032 28.970703 18.994751 28.482422 17.72522 18.082031 C 17.627563 17.251953 17.090454 16.714844 16.309204 16.714844 C 15.479126 16.714844 14.942017 17.251953 14.84436 18.130859 C 13.672485 28.335938 12.940063 28.335938 2.490845 30.337891 C 1.758423 30.484375 1.172485 30.972656 1.172485 31.802734 C 1.172485 32.632813 1.758423 33.121094 2.686157 33.21875 C 13.03772 34.830078 13.672485 35.220703 14.84436 45.425781 C 14.942017 46.304688 15.479126 46.841797 16.309204 46.841797 Z"/>
        <path id="path2" fill="#000000" stroke="#000000" stroke-width="0.5" d="M 42.236938 88.931641 C 43.262329 88.931641 44.092407 88.199219 44.28772 87.076172 C 47.119751 66.714844 50.244751 63.150391 70.508423 60.757813 C 71.680298 60.660156 72.510376 59.78125 72.510376 58.707031 C 72.510376 57.583984 71.680298 56.753906 70.508423 56.607422 C 50.244751 54.214844 47.119751 50.699219 44.28772 30.337891 C 44.092407 29.166016 43.262329 28.433594 42.236938 28.433594 C 41.16272 28.433594 40.332642 29.166016 40.186157 30.337891 C 37.305298 50.699219 34.180298 54.214844 13.916626 56.607422 C 12.744751 56.753906 11.963501 57.583984 11.963501 58.707031 C 11.963501 59.78125 12.744751 60.660156 13.916626 60.757813 C 34.13147 63.492188 37.207642 66.714844 40.186157 87.076172 C 40.332642 88.199219 41.16272 88.931641 42.236938 88.931641 Z"/>
    </g>
</svg>
